# xmcd CD database file
#
# Track frame offsets:
#	150
#	27155
#	56000
#	108592
#	132210
#	182760
#	207965
#	234857
#	248995
#
# Disc length: 3514 seconds
#
# Revision: 3
# Processed by: cddbd v1.5.1PL0 Copyright (c) Steve Scherf et al.
# Submitted via: CDex 1.51
#
DISCID=770db809
DTITLE=Luther Allison - Love Me Papa
DYEAR=1977
DGENRE=Blues
TTITLE0=Love Me Papa
TTITLE1=Blues With A Feeling
TTITLE2=Last Night
TTITLE3=Key To The Highway
TTITLE4=It's Too Late
TTITLE5=Feelin' So Good
TTITLE6=Going Down
TTITLE7=Luther's Boogie
TTITLE8=Standing At The Crossroads
EXTD=ECD 26015-2\n\nLuther Allison:  guitar, vocals, harmonica (track 2]\nDan Hoeflinger:  guitar\nSid Wingfield:  organ, piano\nJim Campbell:  bass guitar\nDonald Robertson:  drums\n\nSubmitted 6/20/97\n[Jmccoy@efn.org] YEAR: 1977
EXTT0=
EXTT1=
EXTT2=
EXTT3=
EXTT4=
EXTT5=
EXTT6=
EXTT7=
EXTT8=
PLAYORDER=
